<svg width="1440" height="673" viewBox="0 0 1440 673" fill="none" xmlns="http://www.w3.org/2000/svg">
<path d="M1039.66 135.256C1035.02 47.3853 769.677 -13.4028 635.169 2.54433L-1 2.54413V657H1007.04C1136.29 626.893 1235.48 562.688 1216.71 445.705C1202.38 356.325 1154.55 319.15 1075.01 294.16C975.211 262.807 1042.3 194.87 1039.66 135.256Z" fill="#E3E9FF"/>
<path d="M1399.96 529.006C1399.96 529.006 1401.85 539.693 1387.99 552.9C1373.88 566.357 1371.33 578.215 1371.33 578.215L1361.53 581.884C1361.53 581.884 1366.3 564.154 1378.17 553.862C1393.05 540.996 1399.96 529.006 1399.96 529.006Z" fill="#A9B9EB"/>
<path d="M1420.51 541.571C1420.51 541.571 1419.21 549.462 1406.32 556.704C1393.17 564.063 1388.52 572.121 1388.52 572.121L1380.47 574.863C1380.47 574.863 1388.42 561.329 1399.23 555.863C1412.75 549.016 1420.51 541.571 1420.51 541.571Z" fill="#A9B9EB"/>
<path d="M1377.43 540.464C1377.43 540.464 1368.89 542.755 1357.76 559.978C1348.69 574.012 1349.39 583.211 1343.77 591.79L1357.16 584.936C1360.15 578.511 1357.33 572.647 1364.93 559.534C1372.03 547.259 1377.43 540.464 1377.43 540.464Z" fill="#A9B9EB"/>
<path d="M1295.44 576.059C1295.44 576.059 1289.66 582.591 1290.34 602.886C1290.88 619.442 1298.02 624.049 1298.32 627.925L1304.36 621.715C1302.25 614.567 1297.27 613.646 1296.02 598.658C1294.87 584.6 1295.44 576.059 1295.44 576.059Z" fill="#A9B9EB"/>
<path d="M1357.2 546.701C1357.2 546.701 1347.7 558.302 1343.57 566.354C1337.67 577.791 1340.23 585.86 1335.07 597.963L1325.35 603.66C1325.35 603.66 1324.03 588.672 1331.88 574.842C1345.06 551.63 1357.2 546.701 1357.2 546.701Z" fill="#A9B9EB"/>
<path d="M1331.34 544.837C1329.9 553.026 1327.22 560.969 1323.4 568.406C1311.66 590.869 1318.01 613.092 1318.01 613.092L1311.22 616.063C1311.22 616.063 1300.03 598.269 1310.44 579.671C1321.46 560.034 1331.34 544.837 1331.34 544.837Z" fill="#A9B9EB"/>
<path d="M1356.03 586.429C1356.03 586.429 1362.48 586.426 1385.23 597.552C1399.8 604.686 1397.39 597.546 1410.25 606.724C1398.94 603.893 1392.37 610.366 1378.41 604.495C1367.25 599.792 1355.73 595.94 1343.96 592.98L1356.03 586.429Z" fill="#A9B9EB"/>
<path d="M1396.73 617.315C1396.73 617.315 1383.2 625.51 1362.61 616.786C1349.92 611.446 1336.41 608.167 1322.62 607.073L1332.77 598.948C1332.77 598.948 1343.78 595.798 1364.29 606.864C1378.4 614.463 1396.73 617.315 1396.73 617.315Z" fill="#A9B9EB"/>
<path d="M1377.01 632.445C1377.01 632.445 1363.48 640.64 1342.89 631.916C1330.2 626.576 1316.69 623.297 1302.9 622.204L1313.05 614.079C1313.05 614.079 1324.06 610.928 1344.57 621.994C1358.67 629.595 1377.01 632.445 1377.01 632.445Z" fill="#A9B9EB"/>
<path d="M1425.39 584.957C1425.39 584.957 1416.48 588.559 1403.67 582.569C1390.69 576.491 1379.73 575.895 1379.73 575.895L1384.94 573.346C1384.94 573.346 1391.9 571.356 1404.87 578.344C1413.79 583.152 1425.39 584.957 1425.39 584.957Z" fill="#A9B9EB"/>
<path d="M1371.69 580.241C1371.69 580.241 1382.47 582.795 1397.28 589.351C1406.64 593.461 1421.53 592.241 1421.53 592.241C1421.53 592.241 1406.74 602.233 1393.06 595.215C1377.39 587.16 1360.26 583.708 1360.26 583.708L1371.69 580.241Z" fill="#A9B9EB"/>
<path d="M1383.37 574.549C1383.37 574.549 1396.81 564.383 1412.27 566.762C1421.45 568.097 1430.79 567.939 1439.91 566.292C1439.91 566.292 1426.92 577.09 1412.98 573.424C1400.09 570.071 1388.46 575.097 1388.46 575.097L1383.37 574.549Z" fill="#A9B9EB"/>
<path d="M1299.4 628.567L1297.55 626.936C1307.92 615.846 1348.69 582.236 1388.23 572.078L1388.87 574.426C1349.88 584.447 1309.65 617.621 1299.4 628.567Z" fill="#A9B9EB"/>
<path d="M1319.36 561.232C1312.28 551.976 1311.33 540.064 1316.51 525.498C1323.91 539.135 1324.86 551.047 1319.36 561.232Z" fill="#A9B9EB"/>
<path d="M1329.15 541.087C1324.09 531.799 1324.93 520.942 1331.67 508.517C1336.41 521.799 1335.57 532.656 1329.15 541.087Z" fill="#A9B9EB"/>
<path d="M1339.91 521.16C1336.5 511.749 1338.85 501.66 1346.97 490.895C1349.54 504.016 1347.19 514.104 1339.91 521.16Z" fill="#A9B9EB"/>
<path d="M1364.17 479.753C1363.89 491.04 1360.11 498.99 1352.8 503.602C1351.7 495.203 1355.49 487.255 1364.17 479.753Z" fill="#A9B9EB"/>
<path d="M1379.45 475.818C1377.5 485.077 1373.17 491.077 1366.46 493.825C1366.83 486.766 1371.16 480.763 1379.45 475.818Z" fill="#A9B9EB"/>
<path d="M1374.07 494.499C1377.01 488.037 1383.27 483.933 1392.85 482.184C1387.6 490.153 1381.34 494.258 1374.07 494.499Z" fill="#A9B9EB"/>
<path d="M1356.14 547.77C1345.71 559.58 1334.53 564.864 1322.6 563.615C1328.93 553.768 1340.11 548.487 1356.14 547.77Z" fill="#A9B9EB"/>
<path d="M1341.23 528.627C1348.94 522.75 1359.06 521.711 1371.6 525.511C1360.17 531.754 1350.05 532.793 1341.23 528.627Z" fill="#A9B9EB"/>
<path d="M1377.31 513.078C1367.36 518.52 1358.55 519.422 1350.88 515.791C1357.58 510.669 1366.39 509.766 1377.31 513.078Z" fill="#A9B9EB"/>
<path d="M1363.13 504.744C1369.84 499.643 1378.65 498.738 1389.56 502.033C1379.61 507.475 1370.8 508.378 1363.13 504.744Z" fill="#A9B9EB"/>
<path d="M1314.73 583.955C1322.09 557.332 1322.75 559.521 1329.92 544.155C1331.85 540.002 1333.89 536.07 1336.05 532.361C1340.57 524.816 1345.91 517.765 1351.99 511.337C1358.97 503.664 1364.96 498.66 1369.97 496.331L1370.46 495.818C1370.54 495.625 1370.75 495.512 1370.96 495.555C1371.15 495.474 1371.37 495.477 1371.57 495.563C1371.73 495.708 1371.86 495.885 1371.94 496.087C1372.02 496.275 1372.02 496.489 1371.93 496.677L1371.74 497.078C1371.59 497.233 1371.41 497.36 1371.2 497.448V497.548L1370.75 497.712C1365.9 500.091 1360.09 504.985 1353.31 512.393C1347.33 518.794 1342.1 525.809 1337.7 533.314C1335.45 537.064 1333.4 540.921 1331.56 544.874L1331.09 545.906C1338.08 537.939 1348.78 534.67 1363.17 536.102C1352.25 545.283 1341.56 548.552 1331.09 545.906C1324.14 561.041 1323.68 558.404 1316.52 584.364L1314.73 583.955Z" fill="#A9B9EB"/>
<path d="M1028.66 610.294C1017.4 613.974 1005.41 611.186 992.697 601.933C1008.37 599.298 1020.36 602.083 1028.66 610.294Z" fill="#A9B9EB"/>
<path d="M1011.9 595.067C1001.22 596.875 990.815 592.76 980.689 582.725C995.189 582.438 1005.59 586.553 1011.9 595.067Z" fill="#A9B9EB"/>
<path d="M995.638 579.016C985.343 579.268 976.162 573.996 968.09 563.196C981.764 564.866 990.945 570.139 995.638 579.016Z" fill="#A9B9EB"/>
<path d="M962.441 543.916C973.44 547.641 980.079 553.58 982.363 561.727C973.778 560.158 967.137 554.222 962.441 543.916Z" fill="#A9B9EB"/>
<path d="M963.278 528.608C971.766 533.26 976.329 539.1 976.963 546.124C970.147 543.615 965.584 537.776 963.278 528.608Z" fill="#A9B9EB"/>
<path d="M979.965 539.326C974.527 534.622 972.423 527.588 973.651 518.217C979.86 525.512 981.964 532.549 979.965 539.326Z" fill="#A9B9EB"/>
<path d="M1026.76 572.239C1035.15 585.489 1036.9 597.423 1032 608.041C1024.28 599.177 1022.53 587.243 1026.76 572.239Z" fill="#A9B9EB"/>
<path d="M1003.37 580.101C999.973 571.186 1002.07 561.533 1009.66 551.138C1012.28 563.596 1010.18 573.249 1003.37 580.101Z" fill="#A9B9EB"/>
<path d="M999.206 542.054C1001.49 552.895 999.669 561.294 993.739 567.254C990.773 559.5 992.597 551.098 999.206 542.054Z" fill="#A9B9EB"/>
<path d="M986.663 552.557C983.716 544.802 985.54 536.403 992.129 527.357C994.413 538.205 992.589 546.604 986.663 552.557Z" fill="#A9B9EB"/>
<path d="M1049.56 621.554C1025.68 606.579 1028.03 606.641 1015.15 595.306C1011.66 592.247 1008.43 589.153 1005.45 586.026C999.433 579.542 994.155 572.446 989.714 564.858C984.323 556.07 981.254 549.006 980.509 543.666L980.154 543.059C979.987 542.927 979.943 542.696 980.051 542.516C980.035 542.312 980.104 542.108 980.245 541.958C980.437 541.85 980.653 541.788 980.875 541.775C981.085 541.759 981.296 541.826 981.451 541.963L981.786 542.261C981.895 542.449 981.961 542.659 981.983 542.874L982.08 542.906L982.102 543.376C982.948 548.576 985.967 555.441 991.156 563.969C995.602 571.447 1000.88 578.433 1006.9 584.796C1009.88 588.025 1013.04 591.1 1016.36 594.012L1017.23 594.766C1011.55 585.868 1011.64 575 1017.47 562.167C1023.12 575.062 1023.04 585.93 1017.23 594.766C1029.95 605.83 1027.22 605.443 1050.51 620.033L1049.56 621.554Z" fill="#A9B9EB"/>
<path d="M1152.27 524.912C1152.27 524.912 1154.47 533.849 1143.5 545.75C1132.31 557.872 1130.82 568.033 1130.82 568.033L1122.74 571.651C1122.74 571.651 1125.78 556.405 1135.24 547.08C1147.1 535.417 1152.27 524.912 1152.27 524.912Z" fill="#A9B9EB"/>
<path d="M1170.35 534.456C1170.35 534.456 1169.7 541.197 1159.2 547.998C1148.5 554.915 1145.01 561.973 1145.01 561.973L1138.36 564.716C1138.36 564.716 1144.32 552.852 1153.16 547.66C1164.21 541.157 1170.35 534.456 1170.35 534.456Z" fill="#A9B9EB"/>
<path d="M1133.86 535.791C1133.86 535.791 1126.77 538.176 1118.33 553.327C1111.44 565.672 1112.55 573.413 1108.28 580.966L1119.22 574.466C1121.38 568.874 1118.67 564.066 1124.36 552.578C1129.68 541.818 1133.86 535.791 1133.86 535.791Z" fill="#A9B9EB"/>
<path d="M1066.53 570.206C1066.53 570.206 1062.01 576.034 1063.72 593.16C1065.11 607.13 1071.41 610.651 1071.88 613.912L1076.64 608.341C1074.45 602.411 1070.18 601.892 1068.29 589.284C1066.53 577.458 1066.53 570.206 1066.53 570.206Z" fill="#A9B9EB"/>
<path d="M1117.11 542.13C1117.11 542.13 1109.72 552.438 1106.68 559.467C1102.34 569.449 1104.95 576.137 1101.28 586.641L1093.37 591.97C1093.37 591.97 1091.41 579.365 1097.28 567.257C1107.12 546.935 1117.11 542.13 1117.11 542.13Z" fill="#A9B9EB"/>
<path d="M1095.14 541.915C1094.37 548.917 1092.56 555.772 1089.74 562.264C1081.08 581.876 1087.69 600.334 1087.69 600.334L1082.12 603.206C1082.12 603.206 1071.66 588.747 1079.41 572.476C1087.63 555.285 1095.14 541.915 1095.14 541.915Z" fill="#A9B9EB"/>
<path d="M1118.34 575.782C1118.34 575.782 1123.8 575.441 1143.66 583.649C1156.38 588.914 1153.94 583.004 1165.33 590.087C1155.61 588.29 1150.41 594.111 1138.29 589.878C1128.59 586.488 1118.63 583.84 1108.51 581.957L1118.34 575.782Z" fill="#A9B9EB"/>
<path d="M1154.5 599.754C1154.5 599.754 1143.52 607.396 1125.61 601.103C1114.58 597.256 1102.97 595.194 1091.25 594.997L1099.38 587.592C1099.38 587.592 1108.51 584.348 1126.48 592.626C1138.83 598.309 1154.5 599.754 1154.5 599.754Z" fill="#A9B9EB"/>
<path d="M1138.67 613.59C1138.67 613.59 1127.69 621.234 1109.78 614.941C1098.75 611.095 1087.15 609.032 1075.42 608.836L1083.55 601.43C1083.55 601.43 1092.68 598.186 1110.65 606.464C1123 612.145 1138.67 613.59 1138.67 613.59Z" fill="#A9B9EB"/>
<path d="M1176.91 570.885C1176.91 570.885 1169.58 574.401 1158.42 570.012C1147.1 565.556 1137.8 565.632 1137.8 565.632L1142.06 563.204C1142.06 563.204 1147.83 561.154 1159.2 566.381C1167.01 569.969 1176.91 570.885 1176.91 570.885Z" fill="#A9B9EB"/>
<path d="M1131.24 569.725C1131.24 569.725 1140.5 571.315 1153.39 576.08C1161.54 579.062 1174.06 577.246 1174.06 577.246C1174.06 577.246 1162.11 586.475 1150.15 581.259C1136.45 575.274 1121.77 573.254 1121.77 573.254L1131.24 569.725Z" fill="#A9B9EB"/>
<path d="M1140.8 564.296C1140.8 564.296 1151.6 554.992 1164.8 556.19C1172.63 556.838 1180.52 556.209 1188.15 554.337C1188.15 554.337 1177.77 564.151 1165.77 561.785C1154.69 559.631 1145.13 564.493 1145.13 564.493L1140.8 564.296Z" fill="#A9B9EB"/>
<path d="M1072.83 614.398L1071.17 613.117C1079.32 603.192 1111.91 572.626 1144.77 561.955L1145.44 563.905C1113.04 574.431 1080.88 604.6 1072.83 614.398Z" fill="#A9B9EB"/>
<path d="M754.335 526.516C754.335 526.516 751.283 535.796 761.908 549.218C772.738 562.892 773.484 573.748 773.484 573.748L781.728 578.194C781.728 578.194 779.765 561.844 770.521 551.256C758.937 538.017 754.335 526.516 754.335 526.516Z" fill="#A9B9EB"/>
<path d="M734.435 535.218C734.435 535.218 734.579 542.395 745.115 550.391C755.874 558.525 758.978 566.255 758.978 566.255L765.783 569.663C765.783 569.663 760.45 556.663 751.53 550.496C740.381 542.777 734.435 535.218 734.435 535.218Z" fill="#A9B9EB"/>
<path d="M772.91 539.427C772.91 539.427 780.206 542.495 787.901 559.158C794.171 572.739 792.364 580.837 796.261 589.147L785.234 581.436C783.399 575.357 786.656 570.482 781.586 557.901C776.838 546.123 772.91 539.427 772.91 539.427Z" fill="#A9B9EB"/>
<path d="M841.281 580.979C841.281 580.979 845.58 587.487 842.376 605.462C839.767 620.125 832.818 623.364 832.058 626.778L827.479 620.525C830.276 614.422 834.828 614.202 837.86 601.017C840.687 588.645 841.281 580.979 841.281 580.979Z" fill="#A9B9EB"/>
<path d="M790.102 547.415C790.102 547.415 797.065 558.882 799.707 566.545C803.482 577.431 800.173 584.302 803.202 595.69L811.127 601.932C811.127 601.932 814.224 588.758 809.01 575.505C800.267 553.263 790.102 547.415 790.102 547.415Z" fill="#A9B9EB"/>
<path d="M813.345 548.874C813.58 556.335 814.941 563.722 817.383 570.802C824.945 592.201 816.444 611.21 816.444 611.21L822.104 614.672C822.104 614.672 834.342 600.189 827.471 582.389C820.189 563.585 813.345 548.874 813.345 548.874Z" fill="#A9B9EB"/>
<path d="M786.046 582.9C786.046 582.9 780.306 582.121 758.64 589.276C744.758 593.867 747.821 587.807 735.2 594.423C745.623 593.268 750.643 599.819 763.81 596.276C774.34 593.437 785.082 591.401 795.94 590.187L786.046 582.9Z" fill="#A9B9EB"/>
<path d="M745.861 605.47C745.861 605.47 756.849 614.393 776.292 609.112C788.267 605.891 800.707 604.602 813.115 605.293L805.126 596.84C805.126 596.84 795.737 592.709 776.062 600.082C762.546 605.145 745.861 605.47 745.861 605.47Z" fill="#A9B9EB"/>
<path d="M761.465 621.309C761.465 621.309 772.453 630.232 791.895 624.951C803.87 621.731 816.311 620.442 828.718 621.132L820.729 612.679C820.729 612.679 811.341 608.548 791.665 615.921C778.146 620.984 761.465 621.309 761.465 621.309Z" fill="#A9B9EB"/>
<path d="M724.525 573.23C724.525 573.23 731.99 577.509 744.148 573.725C756.478 569.881 766.304 570.673 766.304 570.673L761.997 567.778C761.997 567.778 756.062 565.167 743.624 569.822C735.073 573.021 724.525 573.23 724.525 573.23Z" fill="#A9B9EB"/>
<path d="M772.904 575.505C772.904 575.505 762.989 576.478 748.968 580.525C740.115 583.053 727.026 580.173 727.026 580.173C727.026 580.173 738.906 590.848 751.971 586.249C766.95 580.974 782.637 579.967 782.637 579.967L772.904 575.505Z" fill="#A9B9EB"/>
<path d="M763.247 569.035C763.247 569.035 752.591 558.369 738.529 558.624C730.194 558.708 721.903 557.44 714 554.875C714 554.875 724.168 566.048 737.046 564.466C748.941 563.038 758.645 568.912 758.645 568.912L763.247 569.035Z" fill="#A9B9EB"/>
<path d="M831.011 627.216L832.871 625.988C825.065 614.871 793.109 580.056 759.239 566.252L758.365 568.264C791.765 581.877 823.299 616.241 831.011 627.216Z" fill="#A9B9EB"/>
<path d="M939.941 225.784C942.422 223.969 945.399 223.061 948.872 223.061C956.371 223.061 960.34 227.015 960.34 232.569C960.34 235.773 958.741 239.034 955.489 242.292C951.353 246.512 948.376 248.596 946.502 248.596C944.684 248.596 943.359 247.208 943.359 245.55C943.359 244.054 944.792 242.558 947.273 240.369C947.439 240.208 947.603 240.05 947.714 239.996C950.524 237.484 951.409 236.096 951.409 234.388C951.409 232.249 949.92 231.076 947.769 231.076C946.777 231.076 945.618 231.291 944.24 231.718C942.863 232.145 941.87 232.36 941.263 232.36C939.719 232.36 937.956 231.078 937.956 228.94C937.956 227.815 938.619 226.746 939.941 225.784ZM947.495 261.416C944.132 261.416 941.87 258.959 941.87 255.967C941.87 253.401 944.129 250.944 947.495 250.944C950.416 250.944 952.678 253.401 952.678 255.967C952.675 258.908 950.527 261.416 947.495 261.416Z" fill="white"/>
<path d="M1316.75 367.77C1318.7 366.347 1321.03 365.635 1323.75 365.635C1329.63 365.635 1332.74 368.734 1332.74 373.088C1332.74 375.6 1331.49 378.154 1328.94 380.708C1325.7 384.015 1323.36 385.648 1321.89 385.648C1320.47 385.648 1319.43 384.56 1319.43 383.26C1319.43 382.086 1320.55 380.915 1322.5 379.199C1322.63 379.073 1322.76 378.946 1322.85 378.906C1325.05 376.937 1325.74 375.849 1325.74 374.509C1325.74 372.833 1324.57 371.912 1322.89 371.912C1322.11 371.912 1321.2 372.078 1320.12 372.414C1319.04 372.75 1318.26 372.916 1317.79 372.916C1316.58 372.916 1315.19 371.912 1315.19 370.236C1315.2 369.363 1315.72 368.525 1316.75 367.77ZM1322.67 395.699C1320.04 395.699 1318.27 393.773 1318.27 391.428C1318.27 389.419 1320.04 387.493 1322.67 387.493C1324.96 387.493 1326.73 389.419 1326.73 391.428C1326.74 393.73 1325.05 395.699 1322.67 395.699Z" fill="white"/>
<path d="M1222.8 399.013H1132.73C1131.13 399.013 1129.84 397.761 1129.84 396.219V321.093C1129.84 319.549 1131.13 318.3 1132.73 318.3C1134.32 318.3 1135.61 319.551 1135.61 321.093V393.423H1222.79C1224.39 393.423 1225.68 394.675 1225.68 396.217C1225.68 397.761 1224.39 399.013 1222.8 399.013Z" fill="#CDD8FA"/>
<path d="M1139.55 380.649C1138.82 380.649 1138.1 380.389 1137.54 379.865C1136.4 378.793 1136.37 377.023 1137.47 375.914L1166.58 346.736C1167.54 345.775 1169.07 345.608 1170.23 346.333L1183.99 354.985L1198.51 338.641C1199.55 337.472 1201.37 337.338 1202.57 338.345C1203.78 339.352 1203.92 341.114 1202.88 342.285L1186.72 360.478C1185.78 361.536 1184.18 361.759 1182.97 360.999L1169.08 352.272L1141.62 379.795C1141.05 380.364 1140.3 380.649 1139.55 380.649Z" fill="#F5A3B7"/>
<path d="M1202.94 350.62L1198.83 342.557L1189.99 339.823L1209.67 330.349L1202.94 350.62Z" fill="#F5A3B7"/>
<path d="M878.265 265.558C869.502 265.558 862.373 258.65 862.373 250.159C862.373 241.669 869.502 234.761 878.265 234.761C887.027 234.761 894.156 241.669 894.156 250.159C894.156 258.65 887.027 265.558 878.265 265.558ZM878.265 239.002C871.914 239.002 866.75 244.006 866.75 250.159C866.75 256.313 871.917 261.317 878.265 261.317C884.615 261.317 889.779 256.31 889.779 250.159C889.779 244.006 884.612 239.002 878.265 239.002Z" fill="white"/>
<path d="M1397.9 451.535C1390.32 451.535 1384.15 445.561 1384.15 438.215C1384.15 430.872 1390.32 424.898 1397.9 424.898C1405.47 424.898 1411.64 430.872 1411.64 438.215C1411.64 445.561 1405.47 451.535 1397.9 451.535ZM1397.9 428.567C1392.41 428.567 1387.94 432.897 1387.94 438.218C1387.94 443.539 1392.41 447.868 1397.9 447.868C1403.39 447.868 1407.86 443.539 1407.86 438.218C1407.85 432.897 1403.39 428.567 1397.9 428.567Z" fill="white"/>
<path d="M752.001 449.958C746.238 449.958 741.548 445.416 741.548 439.829C741.548 434.245 746.235 429.701 752.001 429.701C757.764 429.701 762.454 434.243 762.454 439.829C762.454 445.414 757.764 449.958 752.001 449.958ZM752.001 432.491C747.826 432.491 744.428 435.784 744.428 439.829C744.428 443.877 747.826 447.168 752.001 447.168C756.178 447.168 759.574 443.875 759.574 439.829C759.574 435.784 756.178 432.491 752.001 432.491Z" fill="white"/>
<path d="M1372.33 371.488C1368.33 371.488 1365.08 368.337 1365.08 364.466C1365.08 360.593 1368.33 357.443 1372.33 357.443C1376.32 357.443 1379.57 360.593 1379.57 364.466C1379.57 368.337 1376.32 371.488 1372.33 371.488ZM1372.33 359.377C1369.43 359.377 1367.07 361.66 1367.07 364.464C1367.07 367.271 1369.43 369.551 1372.33 369.551C1375.22 369.551 1377.58 367.268 1377.58 364.464C1377.58 361.657 1375.22 359.377 1372.33 359.377Z" fill="#E3EAFF"/>
<path d="M806.969 332.67C812.675 330.379 815.384 324.041 813.021 318.512C810.657 312.984 804.116 310.358 798.41 312.648C792.704 314.938 789.995 321.277 792.358 326.806C794.722 332.334 801.263 334.96 806.969 332.67Z" fill="#E3EAFF"/>
<path d="M1160.94 212.169C1160.94 218.153 1155.94 223.004 1149.76 223.004C1143.58 223.004 1138.58 218.153 1138.58 212.169C1138.58 206.185 1143.58 201.334 1149.76 201.334C1155.94 201.334 1160.94 206.185 1160.94 212.169Z" fill="#E3EAFF"/>
<path d="M1252.39 325.288C1252.39 329.148 1249.16 332.277 1245.18 332.277C1241.19 332.277 1237.96 329.148 1237.96 325.288C1237.96 321.429 1241.19 318.3 1245.18 318.3C1249.16 318.3 1252.39 321.429 1252.39 325.288Z" fill="white"/>
<path d="M1421.18 469.536C1421.18 473.396 1417.95 476.525 1413.96 476.525C1409.98 476.525 1406.75 473.396 1406.75 469.536C1406.75 465.676 1409.98 462.547 1413.96 462.547C1417.95 462.547 1421.18 465.676 1421.18 469.536Z" fill="white"/>
<path d="M1374.52 343.041C1374.52 349.025 1369.51 353.876 1363.34 353.876C1357.16 353.876 1352.16 349.025 1352.16 343.041C1352.16 337.056 1357.16 332.205 1363.34 332.205C1369.52 332.208 1374.52 337.056 1374.52 343.041Z" fill="#E3EAFF"/>
<path d="M913.892 225.653C913.892 230.509 909.831 234.444 904.82 234.444C899.808 234.444 895.747 230.507 895.747 225.653C895.747 220.797 899.808 216.862 904.82 216.862C909.831 216.859 913.892 220.797 913.892 225.653Z" fill="white"/>
<path d="M72.7167 196.224C63.9545 196.224 56.825 189.316 56.825 180.826C56.825 172.335 63.9545 165.427 72.7167 165.427C81.4789 165.427 88.6084 172.335 88.6084 180.826C88.6084 189.316 81.4789 196.224 72.7167 196.224ZM72.7167 169.668C66.3661 169.668 61.2019 174.672 61.2019 180.826C61.2019 186.979 66.3689 191.983 72.7167 191.983C79.0673 191.983 84.2315 186.976 84.2315 180.826C84.2315 174.672 79.0645 169.668 72.7167 169.668Z" fill="white"/>
<path d="M355.394 142.835C355.394 148.82 350.388 153.67 344.212 153.67C338.036 153.67 333.03 148.82 333.03 142.835C333.03 136.851 338.036 132 344.212 132C350.388 132 355.394 136.851 355.394 142.835Z" fill="#E3EAFF"/>
<path d="M568.972 273.707C568.972 279.691 563.966 284.542 557.793 284.542C551.617 284.542 546.611 279.691 546.611 273.707C546.611 267.722 551.617 262.872 557.793 262.872C563.969 262.874 568.972 267.722 568.972 273.707Z" fill="#E3EAFF"/>
<path d="M108.345 156.319C108.345 161.175 104.284 165.11 99.2719 165.11C94.2602 165.11 90.1992 161.173 90.1992 156.319C90.1992 151.463 94.2602 147.528 99.2719 147.528C104.284 147.525 108.345 151.463 108.345 156.319Z" fill="white"/>
<path d="M5.89173 459.696C-2.87049 459.696 -10 452.788 -10 444.298C-10 435.807 -2.87049 428.899 5.89173 428.899C14.654 428.899 21.7835 435.807 21.7835 444.298C21.7835 452.788 14.654 459.696 5.89173 459.696ZM5.89173 433.14C-0.458866 433.14 -5.62305 438.144 -5.62305 444.298C-5.62305 450.451 -0.456094 455.455 5.89173 455.455C12.2423 455.455 17.4065 450.448 17.4065 444.298C17.4065 438.144 12.2396 433.14 5.89173 433.14Z" fill="white"/>
<path d="M41.5196 419.791C41.5196 424.647 37.4587 428.582 32.4469 428.582C27.4352 428.582 23.3743 424.645 23.3743 419.791C23.3743 414.935 27.4352 411 32.4469 411C37.4587 410.997 41.5196 414.935 41.5196 419.791Z" fill="white"/>
<path d="M104.892 672.696C96.1295 672.696 89 665.788 89 657.298C89 648.807 96.1295 641.899 104.892 641.899C113.654 641.899 120.783 648.807 120.783 657.298C120.783 665.788 113.654 672.696 104.892 672.696ZM104.892 646.14C98.5411 646.14 93.3769 651.144 93.3769 657.298C93.3769 663.451 98.5439 668.455 104.892 668.455C111.242 668.455 116.407 663.448 116.407 657.298C116.407 651.144 111.24 646.14 104.892 646.14Z" fill="white"/>
<path d="M140.52 632.791C140.52 637.647 136.459 641.582 131.447 641.582C126.435 641.582 122.374 637.645 122.374 632.791C122.374 627.935 126.435 624 131.447 624C136.459 623.997 140.52 627.935 140.52 632.791Z" fill="white"/>
<path d="M0.999968 309C-34.839 309 -64 272.212 -64 227C-64 181.788 -34.839 145 0.999968 145C36.839 145 66 181.788 66 227C66 272.212 36.839 309 0.999968 309ZM0.999968 167.585C-24.9751 167.585 -46.0975 194.231 -46.0975 227C-46.0975 259.769 -24.9638 286.415 0.999968 286.415C26.975 286.415 48.0975 259.754 48.0975 227C48.0975 194.231 26.9637 167.585 0.999968 167.585Z" fill="white"/>
<path d="M993.268 416.845C993.268 421.702 989.204 425.637 984.195 425.637C979.184 425.637 975.123 421.699 975.123 416.845C975.123 411.989 979.184 408.054 984.195 408.054C989.207 408.054 993.268 411.989 993.268 416.845Z" fill="white"/>
<path d="M1083.99 656.689C1252.56 656.689 1389.2 645.814 1389.2 632.399C1389.2 618.985 1252.56 608.11 1083.99 608.11C915.429 608.11 778.781 618.985 778.781 632.399C778.781 645.814 915.429 656.689 1083.99 656.689Z" fill="#95A6DB"/>
<path d="M925.297 634.621L914.691 634.567L942.588 513.196L952.731 515.264L925.297 634.621Z" fill="#617AC9"/>
<path d="M1182.49 634.621L1193.09 634.567L1165.19 513.196L1155.05 515.264L1182.49 634.621Z" fill="#617AC9"/>
<path d="M1117.86 614.946C1115.8 614.946 1114.13 613.327 1114.13 611.328V546.417H1121.59V611.328C1121.59 613.327 1119.92 614.946 1117.86 614.946Z" fill="#0E6A41"/>
<path d="M1027.91 614.946C1025.85 614.946 1024.18 613.327 1024.18 611.328V546.417H1031.64V611.328C1031.64 613.327 1029.97 614.946 1027.91 614.946Z" fill="#0E6A41"/>
<path d="M1122.07 546.548H1022.14C1018.82 546.548 1016.12 543.937 1016.12 540.714V539.615C1016.12 536.392 1018.82 533.781 1022.14 533.781H1122.07C1125.4 533.781 1128.09 536.392 1128.09 539.615V540.714C1128.09 543.934 1125.4 546.548 1122.07 546.548Z" fill="#3F964F"/>
<path d="M1105.87 426.862C1112.7 428.793 1138.98 456.109 1145.27 476.318C1141.87 494.492 1112.09 503.93 1112.09 503.93L1111.59 489.847C1111.59 489.847 1121.37 483.538 1125.84 476.318C1118.72 471.341 1104.68 454.6 1104.68 454.6L1105.87 426.862Z" fill="#201D40"/>
<path d="M1040.29 426.862C1033.47 428.793 1016.54 455.048 1009.6 478.784C991.441 490.234 977.205 502.805 977.205 502.805L994.069 503.882C994.069 503.882 1016.2 498.598 1027.91 486.278C1032.79 476.635 1041.49 454.6 1041.49 454.6L1040.29 426.862Z" fill="#201D40"/>
<path d="M1084.18 421.809L1061.21 422.797L1058.89 444.578L1061.4 506.729L1085.62 506.436L1091.96 436.861L1084.18 421.809Z" fill="#95A6DB"/>
<path d="M1056.87 388.903C1060.06 385.342 1062.59 388.796 1067.15 384.386C1071.71 379.975 1075.37 376.801 1079.28 381.455C1083.18 386.11 1085.19 386.763 1088.03 386.497C1090.87 386.231 1090.86 397.555 1090.86 397.555C1090.86 397.555 1097.81 395.78 1098.36 388.237C1099.01 379.347 1094.76 380.682 1092.46 373.577C1090.16 366.476 1081.27 362.468 1077.2 364.174C1072.92 365.971 1070.66 367.95 1064.42 366.478C1058.17 365.009 1052.79 366.79 1052.8 374.636C1052.82 382.481 1043.29 380.139 1046.34 389.938C1047.52 393.738 1050.84 397.235 1052.37 396.932C1054.43 396.521 1054.8 391.2 1056.87 388.903Z" fill="#2C2858"/>
<path d="M1089.1 396.478C1087.56 399.341 1088 402.881 1090.07 404.385C1092.14 405.889 1095.06 404.788 1096.59 401.927C1098.13 399.064 1097.69 395.524 1095.62 394.02C1093.55 392.516 1090.63 393.617 1089.1 396.478Z" fill="#F37A50"/>
<path d="M1091.86 402.972C1091.92 402.978 1091.98 402.972 1092.03 402.956C1092.34 402.87 1092.55 402.502 1092.49 402.134C1092.18 400.281 1092.34 398.911 1092.95 398.175C1093.78 397.184 1095.24 397.479 1095.25 397.482C1095.57 397.547 1095.88 397.3 1095.94 396.929C1096.01 396.558 1095.81 396.201 1095.5 396.134C1095.42 396.115 1093.42 395.696 1092.15 397.222C1091.23 398.323 1090.96 400.079 1091.35 402.443C1091.4 402.744 1091.62 402.953 1091.86 402.972Z" fill="#DE623C"/>
<path d="M1064.97 427.291L1072.97 433.418L1081.08 427.291L1082.15 412.322H1063.9L1064.97 427.291Z" fill="#DE623C"/>
<path d="M1040.04 426.861L1040.46 506.728C1048.28 512.949 1063.61 514.649 1063.61 514.649L1060.82 424.25L1040.04 426.861Z" fill="#2C2858"/>
<path d="M1106.58 426.861L1106.16 506.729C1098.34 512.949 1083.71 514.819 1083.71 514.819L1085.8 424.251L1106.58 426.861Z" fill="#2C2858"/>
<path d="M1049.59 437.052L1062.8 492.254L1060.79 423.276L1049.59 437.052Z" fill="#494C7F"/>
<path d="M1097.72 433.23L1084.18 492.885L1085.8 424.25L1097.72 433.23Z" fill="#494C7F"/>
<path d="M1072.7 373.908C1049.14 373.37 1054.52 404.117 1056.24 408.949C1057.17 411.584 1063.15 421.686 1072.76 421.831C1082.37 421.688 1088.22 411.584 1089.16 408.949C1090.87 404.119 1097.07 374.268 1072.7 373.908Z" fill="#F37A50"/>
<path d="M1068.57 395.825C1068.81 395.702 1069 395.492 1069.09 395.226C1069.28 394.673 1068.97 394.077 1068.4 393.894C1068.23 393.84 1064.14 392.58 1060.44 395.162C1059.95 395.5 1059.84 396.161 1060.19 396.634C1060.54 397.106 1061.22 397.216 1061.71 396.875C1064.53 394.912 1067.69 395.887 1067.72 395.898C1068.01 395.989 1068.32 395.954 1068.57 395.825Z" fill="#2C2858"/>
<path d="M1079 395.825C1078.76 395.702 1078.57 395.492 1078.48 395.226C1078.29 394.673 1078.6 394.077 1079.17 393.894C1079.35 393.84 1083.43 392.58 1087.14 395.162C1087.62 395.5 1087.74 396.161 1087.39 396.634C1087.04 397.106 1086.35 397.216 1085.87 396.875C1083.04 394.912 1079.88 395.887 1079.85 395.898C1079.56 395.989 1079.25 395.954 1079 395.825Z" fill="#2C2858"/>
<path d="M1083.38 399.204C1083.38 400.233 1082.52 401.066 1081.46 401.066C1080.39 401.066 1079.53 400.233 1079.53 399.204C1079.53 398.175 1080.39 397.343 1081.46 397.343C1082.52 397.343 1083.38 398.175 1083.38 399.204Z" fill="black"/>
<path d="M1067.32 398.933C1067.32 399.961 1066.46 400.794 1065.4 400.794C1064.33 400.794 1063.47 399.961 1063.47 398.933C1063.47 397.904 1064.33 397.071 1065.4 397.071C1066.46 397.071 1067.32 397.907 1067.32 398.933Z" fill="black"/>
<path d="M1073.92 400.364C1075.1 402.929 1076.62 406.069 1076.62 406.069C1076.62 406.069 1075.37 408.438 1071.97 408.014C1073.49 407.632 1075.04 406.891 1074.73 404.957C1074.41 403.026 1073.92 400.364 1073.92 400.364Z" fill="#DE623C"/>
<path d="M1075.06 439.141L1079.09 491.569L1073.05 498.48L1067.01 491.569L1071.13 439.278L1075.06 439.141Z" fill="#201D40"/>
<path d="M1077.27 433.509L1073.25 432.486L1069.15 433.684L1071.12 439.375L1075.07 439.308L1077.27 433.509Z" fill="#201D40"/>
<path d="M1073.05 432.496C1073.05 432.496 1070.39 436.273 1065.66 438.411L1057.74 426.762L1061.21 422.797L1073.05 432.496Z" fill="white"/>
<path d="M1073.05 432.496C1073.05 432.496 1076.9 436.85 1080.64 438.156L1087.82 425.58L1084.44 421.809L1073.05 432.496Z" fill="white"/>
<path d="M1054.06 394.442C1056.72 395.301 1057.59 381.176 1067.94 387.861C1075.22 392.567 1088.8 391.823 1086.08 385.439C1088.26 387.002 1091.42 390.109 1091.42 390.109L1086.63 374.754C1086.63 374.754 1066.88 368.737 1059.87 374.832C1052.85 380.926 1054.06 394.442 1054.06 394.442Z" fill="#2C2858"/>
<path d="M1058.17 397.036C1059.73 400.015 1058.82 403.504 1056.13 404.834C1053.44 406.163 1049.99 404.828 1048.42 401.85C1046.85 398.873 1047.77 395.382 1050.46 394.052C1053.15 392.723 1056.6 394.058 1058.17 397.036Z" fill="#F37A50"/>
<path d="M1054.09 403.281C1054.02 403.281 1053.95 403.27 1053.88 403.252C1053.51 403.141 1053.3 402.757 1053.41 402.395C1053.99 400.571 1053.93 399.193 1053.26 398.411C1052.36 397.356 1050.54 397.53 1050.52 397.533C1050.14 397.573 1049.79 397.302 1049.74 396.926C1049.7 396.55 1049.98 396.212 1050.37 396.169C1050.47 396.158 1052.95 395.903 1054.35 397.528C1055.35 398.699 1055.5 400.472 1054.77 402.795C1054.68 403.09 1054.4 403.281 1054.09 403.281Z" fill="#DE623C"/>
<path d="M1073.77 414.081C1070.41 414.081 1067.53 412.311 1067.32 412.113C1066.98 411.785 1066.97 411.245 1067.31 410.909C1067.63 410.598 1068.13 410.571 1068.48 410.834C1068.73 410.993 1074.6 414.482 1078.44 410.377C1078.77 410.031 1079.32 410.004 1079.68 410.321C1080.04 410.638 1080.07 411.175 1079.74 411.522C1078.21 413.155 1076.29 414.014 1074.04 414.076C1073.95 414.081 1073.86 414.081 1073.77 414.081Z" fill="#DE623C"/>
<path d="M1117.86 520.059L1101.51 505.458H1047.5L1027.9 519.965L1050.03 535.495H1099.02L1117.86 520.059Z" fill="#201D40"/>
<path d="M1042.01 604.635C1037 615.142 1018.86 613.383 1022.06 625.053C1025.25 636.727 1058.41 618.107 1058.41 618.107C1057.79 615.258 1055.9 608.578 1054.77 606.037L1042.01 604.635Z" fill="black"/>
<path d="M1104.53 604.106C1109.75 615.07 1128.68 613.235 1125.35 625.416C1122.01 637.597 1087.41 618.169 1087.41 618.169C1088.06 615.196 1090.02 608.223 1091.2 605.572L1104.53 604.106Z" fill="black"/>
<path d="M1057.26 540.988C1057.13 524.206 1042.51 505.566 1027.91 518.069C1012.6 531.182 1037.34 605.669 1037.34 605.669C1046.44 610.939 1050.8 610.767 1060.21 605.669C1060.21 605.669 1057.37 557.184 1057.26 540.988Z" fill="#2C2858"/>
<path d="M1091.78 540.988C1091.9 524.206 1106.33 512.608 1117.86 520.059C1130.35 528.127 1109.91 607.379 1109.91 607.379C1106.38 609.026 1096.08 610.09 1088.91 608.11C1088.91 608.113 1091.66 557.184 1091.78 540.988Z" fill="#2C2858"/>
<path d="M1222.1 634.621C1220.04 634.621 1218.37 633.001 1218.37 631.003V566.916H1225.83V631.003C1225.83 633.001 1224.16 634.621 1222.1 634.621Z" fill="#0E6A41"/>
<path d="M1248.3 634.621C1246.23 634.621 1244.56 633.001 1244.56 631.003V566.916H1252.03V631.003C1252.03 633.001 1250.36 634.621 1248.3 634.621Z" fill="#0E6A41"/>
<path d="M1282.67 634.621C1280.61 634.621 1278.93 633.001 1278.93 631.003V566.916H1286.4V631.003C1286.4 633.001 1284.73 634.621 1282.67 634.621Z" fill="#0E6A41"/>
<path d="M1308.86 634.621C1306.8 634.621 1305.13 633.001 1305.13 631.003V566.916H1312.59V631.003C1312.59 633.001 1310.92 634.621 1308.86 634.621Z" fill="#0E6A41"/>
<path d="M1267.56 471.803V548.068C1267.56 548.936 1266.83 549.64 1265.94 549.64H1217.14C1212.21 549.64 1208.22 553.507 1208.22 558.278C1208.22 563.048 1212.21 566.916 1217.14 566.916H1267.56H1276.47C1281.4 566.916 1285.39 563.048 1285.39 558.278V549.64V471.803C1285.39 467.033 1281.4 463.165 1276.47 463.165C1271.55 463.165 1267.56 467.03 1267.56 471.803Z" fill="#3F964F"/>
<path d="M1315.06 463.165H1276.47V551.039H1315.06V463.165Z" fill="#3F964F"/>
<path d="M1306.14 471.803V548.068C1306.14 548.936 1305.41 549.64 1304.52 549.64H1255.72C1250.8 549.64 1246.8 553.507 1246.8 558.278C1246.8 563.048 1250.8 566.916 1255.72 566.916H1306.14H1315.06C1319.98 566.916 1323.97 563.048 1323.97 558.278V549.64V471.803C1323.97 467.033 1319.98 463.165 1315.06 463.165C1310.13 463.165 1306.14 467.03 1306.14 471.803Z" fill="#0E6A41"/>
<path d="M1228.78 488.931C1232.49 490.93 1232.53 503.376 1231.25 504.107C1188.51 506.986 1177.73 505.474 1177.73 505.474L1178.27 498.426C1178.27 498.426 1202.92 490.897 1228.78 488.931Z" fill="#F37A50"/>
<path d="M1269.03 466.17C1262.47 476.342 1235.18 503.865 1230.72 504.255L1225.68 489.251C1225.68 489.251 1251.27 456.439 1255.81 451.381C1263.66 442.604 1279.78 449.582 1269.03 466.17Z" fill="#F37A50"/>
<path d="M1170.42 497.427C1172.8 497.489 1175.32 497.677 1178.71 498.243L1181.19 499.495L1180.93 503.57C1177.36 508.305 1166.7 509.073 1165.72 509.073C1163.19 509.073 1162 509.226 1161.83 508.883C1161.66 508.539 1161.24 506.317 1164.93 506.202C1169.57 506.06 1166.84 502.251 1157.24 504.837C1154.84 505.485 1150.56 504.016 1152.29 502.501C1154.2 500.835 1159.59 497.148 1170.42 497.427Z" fill="#F37A50"/>
<path d="M1253.33 411.817C1252.54 401.404 1255.65 392.202 1264.22 387.517C1272.91 382.769 1283.79 387.426 1283.79 387.426C1283.79 387.426 1293 384.251 1301.34 393.161C1309.69 402.07 1303.38 409.91 1306.79 416.408C1308.81 420.257 1319.09 421.049 1316.44 433.582C1315.67 437.197 1311.19 439.63 1307.39 439.872C1300.71 440.297 1294.49 437.796 1291.78 440.297C1282.87 448.537 1263.1 445.558 1260.33 438.019C1259.48 435.682 1241.7 440.205 1243.47 424.283C1244.37 416.217 1254.04 421.124 1253.33 411.817Z" fill="#0D0C1A"/>
<path d="M1269.62 445.483L1283.74 442.958L1289.03 449.783L1277.78 472.131L1261.24 458.523L1269.62 445.483Z" fill="#F37A50"/>
<path d="M1251.33 499.367C1251.57 495.115 1244.48 477.653 1248.21 468.865C1250.93 461.795 1255.47 449.926 1261.03 447.946C1263.65 447.012 1266.35 446.362 1269.62 445.486C1269.62 445.486 1267.78 454.395 1271.62 454.694C1279.02 455.268 1283.74 442.961 1283.74 442.961C1287.73 442.591 1306.03 448.419 1306.02 449.875C1305.97 461.28 1296.41 477.919 1293.29 490.25C1292.06 503.567 1296.85 519.503 1296.87 521.018C1296.87 521.018 1267.43 529.038 1249.98 519.729C1249.61 518.429 1250.99 505.238 1251.33 499.367Z" fill="#E62552"/>
<path d="M1292.44 507.333C1292.44 507.333 1298.94 523.22 1300.52 533.223C1302.11 543.223 1293.16 549.639 1293.16 549.639H1218.78C1218.78 549.639 1210.82 537.126 1213.11 528.485C1215.41 519.844 1220.68 518.471 1220.68 518.471L1292.44 507.333Z" fill="#E62552"/>
<path d="M1217.79 518.028C1227.28 516.731 1254.84 527.104 1266.6 549.639H1233.72L1217.79 518.028Z" fill="#DE623C"/>
<path d="M1228.2 526.323C1226.97 525.02 1225.86 523.417 1224.88 521.743C1222.11 517.01 1215.43 516.213 1211.65 520.242C1197.95 534.886 1168.72 568.272 1162.21 572.427C1160.37 573.601 1149.62 579.593 1139.41 578.409C1139.41 578.409 1134.38 580.268 1137.73 584.146C1139.46 586.142 1165.41 588.205 1165.41 588.205L1167.43 580.821C1182.54 569.988 1201.34 570.767 1217.28 550.964C1226.06 540.059 1228.2 526.323 1228.2 526.323Z" fill="#DE623C"/>
<path d="M1160.15 592.462L1149.71 599.029L1148.28 597.372L1156.75 589.72C1151.93 586.043 1140.79 589.11 1140.79 589.11C1137.14 586.824 1130.02 579.416 1129.29 575.446C1131.63 572.624 1139.41 578.431 1139.41 578.431C1139.13 579.688 1141.59 584.044 1143.54 584.788C1152.04 586.566 1160.52 584.224 1167.43 580.824C1167.43 580.821 1173.21 589.303 1160.15 592.462Z" fill="#201D40"/>
<path d="M1228.35 528.313C1230.25 528.81 1231.67 530.352 1231.95 532.242C1232.69 537.354 1236.53 547.706 1231.33 558.543C1218.58 585.156 1211.05 602.69 1209.71 609.558C1213.04 615.604 1199.76 632.12 1199.56 633.203L1190 630.302C1190 630.302 1195.48 622.392 1197.46 619.297C1202.16 611.922 1202.93 602.873 1203.7 595.86C1206.96 565.914 1201.35 547.005 1223.71 529.438C1225.03 528.399 1226.71 527.883 1228.35 528.313Z" fill="#F37A50"/>
<path d="M1214.47 622.225L1213.53 634.253L1211.3 634.355L1210.16 623.189C1204.22 624.667 1199.98 635.112 1199.98 635.112C1195.89 636.539 1185.5 637.53 1181.8 635.687C1180.9 632.174 1190.38 629.697 1190.38 629.697C1191.24 630.681 1196.31 631.427 1198.1 630.372C1204.72 624.898 1208.31 616.95 1209.71 609.561C1209.71 609.558 1219.8 610.251 1214.47 622.225Z" fill="#201D40"/>
<path d="M1273.19 434.315L1284.65 432.652L1283.74 442.961C1283.74 442.961 1281.55 447.632 1279 447.946L1269.62 445.486L1273.19 434.315Z" fill="#F37A50"/>
<path d="M1295.26 419.408C1292.3 431.382 1282.03 439.263 1272.33 437.012C1262.62 434.761 1257.15 423.227 1260.11 411.253C1263.07 399.279 1273.33 391.399 1283.04 393.65C1292.74 395.903 1298.21 407.434 1295.26 419.408Z" fill="#F37A50"/>
<path d="M1264.66 414.398C1264.23 415.231 1263.19 415.567 1262.33 415.153C1261.47 414.739 1261.12 413.73 1261.55 412.9C1261.98 412.067 1263.02 411.728 1263.88 412.145C1264.73 412.558 1265.08 413.568 1264.66 414.398Z" fill="black"/>
<path d="M1278.29 417.657C1277.83 418.557 1276.7 418.922 1275.77 418.476C1274.84 418.03 1274.46 416.934 1274.93 416.034C1275.39 415.135 1276.52 414.769 1277.45 415.218C1278.37 415.666 1278.75 416.757 1278.29 417.657Z" fill="black"/>
<path d="M1280.36 416.15C1280.24 416.088 1280.13 415.986 1280.06 415.849C1279.12 413.88 1276.58 413.496 1276.55 413.493C1276.19 413.442 1275.95 413.123 1276 412.776C1276.05 412.43 1276.38 412.191 1276.74 412.239C1276.87 412.258 1280 412.715 1281.25 415.317C1281.4 415.634 1281.26 416.01 1280.93 416.158C1280.74 416.241 1280.54 416.233 1280.36 416.15Z" fill="#0D0C1A"/>
<path d="M1260.87 411.962C1260.81 411.933 1260.75 411.892 1260.7 411.839C1260.44 411.592 1260.45 411.189 1260.7 410.944C1262.7 409.037 1265.15 409.827 1265.25 409.862C1265.6 409.975 1265.78 410.337 1265.66 410.668C1265.54 410.998 1265.17 411.172 1264.83 411.06C1264.75 411.033 1263.02 410.501 1261.62 411.844C1261.42 412.04 1261.11 412.08 1260.87 411.962Z" fill="#0D0C1A"/>
<path d="M1265.77 418.057C1264.82 419.005 1263.98 419.983 1263.08 420.539C1262.77 420.727 1262.67 421.121 1262.85 421.428C1263.58 422.69 1265.73 423.729 1267.04 424.269C1267.23 424.347 1267.39 424.105 1267.24 423.971C1265.91 422.843 1265.34 422.013 1265.1 421.556C1264.98 421.331 1264.98 421.062 1265.1 420.837C1265.37 420.316 1265.92 419.255 1266.28 418.374C1266.41 418.07 1266.01 417.82 1265.77 418.057Z" fill="#DE623C"/>
<path d="M1290.58 419.486C1288.23 421.264 1287.53 424.221 1289.03 426.09C1290.53 427.96 1293.66 428.035 1296.02 426.257C1298.38 424.479 1299.07 421.522 1297.57 419.652C1296.07 417.783 1292.94 417.708 1290.58 419.486Z" fill="#F37A50"/>
<path d="M1291.93 425.548C1291.84 425.505 1291.76 425.443 1291.7 425.362C1290.79 424.194 1290.71 422.883 1291.47 421.855C1292.25 420.802 1293.7 420.318 1294.92 420.708C1295.26 420.818 1295.45 421.175 1295.33 421.508C1295.22 421.838 1294.85 422.021 1294.51 421.911C1293.84 421.699 1292.97 421.997 1292.53 422.593C1292.11 423.165 1292.18 423.88 1292.74 424.602C1292.96 424.882 1292.9 425.279 1292.61 425.489C1292.41 425.636 1292.14 425.65 1291.93 425.548Z" fill="#DE623C"/>
<path d="M1276.5 427.603C1276.77 427.246 1276.48 426.746 1276.02 426.8C1274.86 426.934 1272.95 427.117 1271.12 427.117C1269.29 427.117 1267.37 426.934 1266.22 426.8C1265.76 426.746 1265.47 427.246 1265.74 427.603C1266.58 428.701 1268.32 430.369 1271.12 430.369C1273.93 430.369 1275.66 428.704 1276.5 427.603Z" fill="white"/>
<path d="M1295.49 418.35C1283.91 416.846 1267.7 405.411 1266.37 399.54C1268.61 392.489 1280.55 388.947 1287.29 392.213C1294.03 395.479 1300.4 409.478 1295.49 418.35Z" fill="#0D0C1A"/>
<path d="M1353.38 429.086C1347.09 426.153 1348.42 420.461 1348.42 420.461C1345.69 420.808 1339.49 445.118 1338.3 459.622C1324.59 453.243 1301.94 446.058 1296.84 446.939C1296.84 446.939 1289.74 447.485 1290.19 455.884C1290.6 463.38 1300.48 465.392 1300.48 465.392C1300.48 465.392 1343.88 477.181 1348.24 473.302C1355.02 467.269 1351.89 436.526 1353.38 429.086Z" fill="#F37A50"/>
<path d="M1360.42 426.031C1357.65 427.173 1353.65 427.022 1353.46 429.859L1346.91 429.144L1345.37 425.996C1347.44 416.888 1358.37 410.74 1359.49 410.243C1362.41 408.951 1363.7 408.167 1364.08 408.476C1364.45 408.785 1366.14 411.13 1361.96 413.141C1356.71 415.669 1361.91 418.661 1371.55 410.789C1373.96 408.817 1379.69 408.325 1378.51 410.952C1377.22 413.84 1373.03 420.831 1360.42 426.031Z" fill="#F37A50"/>
<path d="M907.786 635.443H908.085C910.5 635.443 912.46 633.546 912.46 631.204V558.74H903.415V631.204C903.415 633.546 905.372 635.443 907.786 635.443Z" fill="#0E6A41"/>
<path d="M876.052 635.443H876.352C878.766 635.443 880.726 633.546 880.726 631.204V558.74H871.681V631.204C871.678 633.546 873.638 635.443 876.052 635.443Z" fill="#0E6A41"/>
<path d="M830.038 631.347C830.038 633.611 832.061 635.445 834.561 635.445C837.059 635.445 839.085 633.611 839.085 631.347V558.742H830.038V631.347Z" fill="#0E6A41"/>
<path d="M802.678 635.443H802.978C805.392 635.443 807.352 633.546 807.352 631.204V558.74H798.307V631.204C798.304 633.546 800.264 635.443 802.678 635.443Z" fill="#0E6A41"/>
<path d="M852.865 443.512V535.906C852.865 536.956 853.744 537.811 854.83 537.811H913.951C919.916 537.811 924.75 542.498 924.75 548.275C924.75 554.055 919.916 558.74 913.951 558.74H852.865H842.065C836.1 558.74 831.266 554.055 831.266 548.275V537.811V443.512C831.266 437.731 836.1 433.047 842.065 433.047C848.031 433.047 852.865 437.734 852.865 443.512Z" fill="#3F964F"/>
<path d="M795.324 539.509H842.067V433.048H795.324V539.509Z" fill="#3F964F"/>
<path d="M806.124 443.512V535.906C806.124 536.957 807.003 537.811 808.089 537.811H867.21C873.175 537.811 878.01 542.498 878.01 548.275C878.01 554.055 873.175 558.74 867.21 558.74H806.124H795.324C789.359 558.74 784.525 554.055 784.525 548.275V537.811V443.512C784.525 437.732 789.359 433.047 795.324 433.047C801.287 433.047 806.124 437.734 806.124 443.512Z" fill="#0E6A41"/>
<path d="M933.596 444.092C930.655 441.124 927.256 439.864 927.212 434.474C927.195 432.515 927.367 430.469 927.478 428.092C927.65 424.423 928.401 421.342 929.191 421.189C930.982 420.842 931.569 421.798 931.858 423.966C932.08 425.642 931.09 427.871 932.315 428.828C933.405 429.676 934.957 430.224 938.727 425.972C943.539 420.544 944.271 417.826 946.275 419.15C947.591 420.018 945.418 422.908 940.989 428.124C944.312 426.319 948.343 418.014 950.793 420.187C952.573 421.763 944.747 429.494 942.394 431.038C947.342 429.158 950.829 422.142 952.207 422.857C955.012 424.495 949.038 431.242 944.714 433.187C949.371 432.403 950.926 428.194 952.138 429.061C954.394 430.684 947.567 437.632 942.43 440.001C940.914 440.702 933.596 444.092 933.596 444.092Z" fill="#F37A50"/>
<path d="M935.012 431.032C935.445 432.373 935.91 434.151 934.754 435.966C933.648 437.704 931.131 437.986 931.131 437.986C932.767 438.384 934.535 438.027 935.575 436.533C936.828 434.742 936.29 432.203 935.012 431.032Z" fill="#DE623C"/>
<path d="M900.862 460.404C910.921 452.993 925.493 436.52 925.493 436.52C931.267 438.97 934.314 445.156 934.314 445.156C927.353 469.466 905.754 489.619 895.928 491.075C886.957 492.404 864.244 450.468 875.265 430.13L879.872 429.145C892.402 435.113 900.862 460.404 900.862 460.404Z" fill="#C4204A"/>
<path d="M949.557 622.913L960.287 625.548L964.67 616.287C964.212 615.959 963.511 609.805 963.079 605.118L945.759 607.434C946.61 612.161 948.041 618.344 949.557 622.913Z" fill="#F37A50"/>
<path d="M968.492 628.374C968.492 628.374 972.204 622.33 976.905 621.949C976.905 621.949 985.778 622.44 988.889 626.056C989.867 627.192 989.49 629.614 989.105 631.164C988.864 632.134 988.015 633.184 985.393 633.985C981.521 635.166 976.296 635.889 966.674 633.472C955.129 630.573 953.285 631.766 949.019 630.434C944.598 629.053 946.017 623.815 947.226 618.715C947.223 618.715 950.441 624.957 968.492 628.374Z" fill="#201D40"/>
<path d="M964.961 615.381C964.961 615.381 970.114 618.406 976.85 619.904C980.62 620.742 990.668 622.631 989.049 629.123C988.808 630.092 987.96 631.143 985.338 631.943C981.465 633.125 976.24 633.847 966.618 631.43C955.073 628.529 953.23 629.724 948.964 628.392C944.542 627.012 946.582 621.067 947.788 615.967C947.896 617.261 948.515 620.659 956.537 623.702C958.932 624.608 956.977 614.374 964.961 615.381Z" fill="#2C2858"/>
<path d="M963.461 623.2C963.847 623.176 964.187 622.913 964.284 622.531C965.099 619.356 968.487 619.133 968.628 619.123C969.13 619.096 969.515 618.68 969.487 618.193C969.46 617.707 969.036 617.334 968.534 617.358C966.851 617.436 963.431 618.532 962.513 622.104C962.391 622.577 962.688 623.058 963.178 623.173C963.275 623.2 963.37 623.205 963.461 623.2Z" fill="#494C7F"/>
<path d="M967.691 624.844C968.077 624.82 968.418 624.557 968.515 624.175C969.33 621 972.717 620.778 972.858 620.767C973.36 620.74 973.745 620.324 973.718 619.837C973.69 619.351 973.266 618.978 972.764 619.002C971.081 619.08 967.661 620.179 966.743 623.748C966.621 624.221 966.918 624.699 967.409 624.817C967.506 624.841 967.6 624.849 967.691 624.844Z" fill="#494C7F"/>
<path d="M907.642 626.829L918.153 630.189L923.198 621.25C922.766 620.893 921.258 614.39 921.166 609.687L904.978 611.13C905.483 615.903 906.461 622.169 907.642 626.829Z" fill="#F37A50"/>
<path d="M890.195 510.876C914.162 515.117 948.202 530.161 951.558 533.583C958.494 540.653 961.89 564.963 965.161 608.264L944.185 609.62C936.443 575.793 929.158 561.045 927.969 547.306C927.969 547.306 909.588 548.539 881.929 538.195C868.294 533.097 854.087 527.148 858.176 515.214C861.436 505.708 867.343 506.831 890.195 510.876Z" fill="#201D40"/>
<path d="M863.387 512.899C883.301 514.892 909.859 536.97 913.216 540.392C920.152 547.462 921.025 571.6 924.296 614.901L903.42 616.765C900.041 594.332 890.162 568.63 890.19 552.157C890.19 552.157 871.504 548.232 842.581 541.928C826.758 538.48 822.01 536.105 818.986 526.095C817.957 522.689 816.56 514.798 818.14 513.036C825.129 505.249 844.541 511.013 863.387 512.899Z" fill="#2C2858"/>
<path d="M926.133 633.566C926.133 633.566 930.275 627.788 934.99 627.729C934.99 627.729 943.805 628.825 946.646 632.644C947.539 633.842 946.987 636.236 946.491 637.756C946.18 638.707 945.257 639.698 942.585 640.316C938.635 641.229 933.374 641.594 923.949 638.527C912.642 634.847 910.718 635.913 906.561 634.294C902.25 632.615 904.046 627.487 905.621 622.481C905.618 622.483 908.376 628.93 926.133 633.566Z" fill="#201D40"/>
<path d="M923.553 620.367C923.553 620.367 928.473 623.735 935.084 625.688C938.785 626.781 948.67 629.349 946.585 635.714C946.275 636.665 945.352 637.654 942.679 638.274C938.729 639.187 933.468 639.552 924.043 636.485C912.737 632.805 910.813 633.872 906.655 632.252C902.344 630.573 904.811 624.782 906.386 619.776C906.4 621.073 906.771 624.506 914.552 628.089C916.872 629.158 915.661 618.82 923.553 620.367Z" fill="#2C2858"/>
<path d="M919.728 628.403C920.113 628.379 920.454 628.116 920.551 627.734C921.366 624.56 924.75 624.337 924.895 624.326C925.396 624.296 925.782 623.883 925.754 623.397C925.726 622.91 925.302 622.537 924.8 622.561C923.118 622.639 919.697 623.735 918.78 627.307C918.658 627.78 918.957 628.261 919.445 628.376C919.542 628.401 919.636 628.409 919.728 628.403Z" fill="#494C7F"/>
<path d="M923.957 630.047C924.343 630.023 924.684 629.76 924.781 629.378C925.596 626.203 928.983 625.98 929.124 625.97C929.626 625.943 930.011 625.526 929.984 625.04C929.956 624.554 929.532 624.181 929.03 624.205C927.347 624.283 923.927 625.379 923.009 628.951C922.887 629.424 923.187 629.905 923.675 630.02C923.772 630.044 923.866 630.052 923.957 630.047Z" fill="#494C7F"/>
<path d="M850.24 409.696H850.248L858.193 409.725L859.994 427.907L850.719 432.653L840.829 427.96L842.428 409.725L850.24 409.696Z" fill="#DE623C"/>
<path d="M849.2 407.568C842.351 409.905 836.657 401.998 836.657 401.998C832.189 402.245 831.953 397.926 831.953 397.926C829.769 397.762 826.551 396.226 826.553 392.256C826.556 388.893 829.83 388.34 829.381 384.501C829.02 381.421 825.087 374.531 834.864 371.808C834.864 371.808 833.816 366.162 839.46 363.535C846.379 360.312 849.167 364.171 852.541 364.238C856.311 364.314 863.257 359.463 866.112 367.26C866.112 367.26 871.24 366.269 874.417 369.358C877.378 372.235 877.086 376.798 875.98 378.692C875.98 378.692 880.382 379.154 882.19 382.704C883.401 385.084 883.14 388.557 880.917 390.698C879.504 392.06 877.962 392.492 877.962 392.492C876.352 393.118 877.25 397.477 875.972 398.632C873.921 400.491 871.573 401.995 869.136 403.311L849.2 407.568Z" fill="#2C2858"/>
<path d="M835.485 397.679C836.793 410.367 847.814 420.682 858.098 419.685C868.382 418.689 874.04 406.757 872.729 394.069C871.42 381.38 862.021 371.902 851.734 372.898C841.45 373.895 834.173 384.99 835.485 397.679Z" fill="#F37A50"/>
<path d="M867.398 398.678C867.717 399.588 868.737 400.077 869.677 399.768C870.617 399.46 871.121 398.471 870.802 397.561C870.484 396.65 869.463 396.161 868.524 396.47C867.584 396.779 867.08 397.767 867.398 398.678Z" fill="black"/>
<path d="M853.527 398.944C853.871 399.93 854.977 400.459 855.994 400.126C857.012 399.793 857.558 398.721 857.214 397.735C856.87 396.749 855.764 396.22 854.747 396.553C853.727 396.886 853.184 397.958 853.527 398.944Z" fill="black"/>
<path d="M861.743 399.024C863.548 401.461 865.826 404.431 865.826 404.431C865.826 404.431 865.045 407.168 861.402 407.429C862.905 406.714 864.363 405.616 863.603 403.663C862.844 401.708 861.743 399.024 861.743 399.024Z" fill="#DE623C"/>
<path d="M851.107 396.744C851.041 396.725 850.977 396.698 850.913 396.666C850.481 396.43 850.331 395.898 850.575 395.482C851.24 394.34 853.197 392.377 855.828 393.099C856.305 393.239 856.582 393.712 856.446 394.174C856.31 394.636 855.814 394.904 855.337 394.772C853.389 394.238 852.147 396.32 852.133 396.341C851.928 396.696 851.498 396.854 851.107 396.744Z" fill="#2C2858"/>
<path d="M867.271 395.194C867.146 395.159 867.032 395.095 866.935 394.998C866.653 394.708 866.664 394.249 866.963 393.975C867.01 393.932 868.13 392.919 869.633 393.061C870.658 393.158 871.573 393.749 872.352 394.818C872.59 395.146 872.51 395.597 872.172 395.828C871.833 396.059 871.368 395.981 871.129 395.653C870.614 394.944 870.059 394.558 869.486 394.504C868.668 394.426 868 395.019 867.992 395.025C867.792 395.208 867.515 395.261 867.271 395.194Z" fill="#2C2858"/>
<path d="M875.124 381.179L852.13 368.55L830.351 385.823L837.225 402.307C836.07 394.265 841.647 395.761 843.709 392.903C845.802 390.005 846.118 386.105 853.009 388.039C853.009 388.039 857.261 383.647 860.884 387.808C863.687 391.026 866.223 389.758 868.953 389.385C872.172 388.942 872.086 392.081 874.001 391.576L875.124 381.179Z" fill="#2C2858"/>
<path d="M838.32 396.497C840.493 398.633 840.79 401.762 838.988 403.483C837.184 405.205 833.96 404.869 831.789 402.734C829.616 400.599 829.32 397.47 831.121 395.748C832.923 394.026 836.147 394.359 838.32 396.497Z" fill="#F37A50"/>
<path d="M836.092 402.543C836.189 402.511 836.277 402.457 836.355 402.382C837.45 401.302 837.719 399.967 837.081 398.81C836.427 397.625 835.005 396.937 833.7 397.176C833.334 397.244 833.092 397.587 833.162 397.942C833.231 398.299 833.586 398.53 833.952 398.463C834.667 398.331 835.515 398.753 835.887 399.425C836.241 400.069 836.067 400.792 835.388 401.461C835.127 401.718 835.13 402.135 835.396 402.387C835.584 402.573 835.856 402.624 836.092 402.543Z" fill="#DE623C"/>
<path d="M865.979 411.439C866.312 411.047 866.001 410.459 865.48 410.496C864.15 410.588 861.951 410.695 859.861 410.596C857.774 410.499 855.595 410.187 854.279 409.973C853.76 409.887 853.394 410.443 853.688 410.864C854.586 412.164 856.477 414.163 859.676 414.31C862.877 414.461 864.956 412.65 865.979 411.439Z" fill="white"/>
<path d="M818.146 513.39C818.146 513.39 834.772 515.052 850.353 515.152C865.935 515.042 882.561 512.111 882.561 512.111C882.561 512.111 880.468 484.387 880.682 473.74C880.984 461.513 879.872 445.303 879.872 429.144C879.872 429.144 868.82 427.42 862.586 426.676C861.572 426.555 860.687 426.461 859.997 426.402C859.997 426.402 856.446 433.622 840.968 426.402C840.155 426.324 839.149 426.327 838.021 426.391C831.518 426.767 821.048 429.144 821.048 429.144C821.048 445.258 820.377 461.051 820.602 473.278C819.906 484.185 818.146 513.39 818.146 513.39Z" fill="#E62552"/>
<path d="M861.308 473.262C860.053 469.544 857.68 467.105 859.936 462.469C860.757 460.785 861.774 459.101 862.88 457.111C864.59 454.038 866.545 451.699 867.288 451.884C868.97 452.303 869.064 453.356 868.388 455.328C867.864 456.853 866.068 458.365 866.711 459.673C867.282 460.836 868.38 461.924 873.419 459.792C879.853 457.065 881.635 455.029 882.788 456.966C883.545 458.236 880.454 459.843 874.439 462.539C878.054 462.322 885.045 456.821 886.217 459.66C887.071 461.723 877.075 465.217 874.403 465.596C879.443 465.964 885.416 461.347 886.292 462.512C887.997 465.04 880.008 468.43 875.476 468.365C879.8 469.555 882.924 466.571 883.592 467.801C884.834 470.092 876.028 473.315 870.619 473.291C869.017 473.286 861.308 473.262 861.308 473.262Z" fill="#F37A50"/>
<path d="M824.233 469.611C836.84 468.757 858.348 462.724 858.348 462.724C861.791 467.839 860.837 474.634 860.837 474.634C841.259 491.266 811.793 496.643 802.75 492.641C794.495 488.985 800.322 440.299 821.048 429.147L821.766 429.212C828.871 440.861 824.233 469.611 824.233 469.611Z" fill="#C4204A"/>
<path d="M838.021 426.391C839.096 428.135 840.621 429.453 842.769 430.501C846.17 432.164 850.794 432.87 853.641 432.652C855.895 432.48 858.395 431.589 859.997 430.359C861.699 429.05 862.436 427.382 862.589 426.676C861.574 426.555 860.535 426.402 859.842 426.343C859.842 426.343 856.446 433.622 840.967 426.402C840.153 426.324 839.146 426.33 838.021 426.391Z" fill="#C4204A"/>
<path d="M881.073 504.037H953.105L967.323 460.232C967.98 458.209 966.419 456.149 964.232 456.149H898.993C897.577 456.149 896.327 457.038 895.903 458.346L881.073 504.037Z" fill="#7F95DB"/>
<path d="M886.536 504.037H958.569L972.786 460.232C973.443 458.209 971.882 456.149 969.695 456.149H904.457C903.04 456.149 901.79 457.038 901.366 458.346L886.536 504.037Z" fill="#95A6DB"/>
<path d="M928.942 480.956C928.149 483.661 929.56 486.422 932.096 487.121C934.633 487.819 937.33 486.191 938.125 483.484C938.918 480.779 937.507 478.018 934.971 477.32C932.435 476.624 929.735 478.252 928.942 480.956Z" fill="#B4C2F0"/>
<path d="M840.15 499.463H886.536V503.927H835.543C835.543 501.464 837.605 499.463 840.15 499.463Z" fill="#7F95DB"/>
<path d="M1221.42 504.037H1151.33L1137.5 461.413C1136.86 459.445 1138.38 457.441 1140.51 457.441H1203.99C1205.36 457.441 1206.58 458.306 1206.99 459.579L1221.42 504.037Z" fill="#7F95DB"/>
<path d="M1216.11 504.037H1146.02L1132.18 461.414C1131.54 459.445 1133.06 457.441 1135.19 457.441H1198.67C1200.05 457.441 1201.26 458.306 1201.68 459.579L1216.11 504.037Z" fill="#95A6DB"/>
<path d="M1174.84 481.58C1175.62 484.212 1174.24 486.898 1171.77 487.578C1169.31 488.257 1166.68 486.672 1165.91 484.04C1165.13 481.408 1166.51 478.722 1168.98 478.042C1171.45 477.363 1174.07 478.948 1174.84 481.58Z" fill="#B4C2F0"/>
<path d="M1261.24 499.586H1216.11V503.93H1265.73C1265.73 501.531 1263.72 499.586 1261.24 499.586Z" fill="#7F95DB"/>
<path d="M1289.04 515.751H812.938C807.887 515.751 803.793 513.081 803.793 509.788C803.793 506.495 807.887 503.825 812.938 503.825H1289.04C1294.09 503.825 1298.19 506.495 1298.19 509.788C1298.18 513.081 1294.09 515.751 1289.04 515.751Z" fill="#617AC9"/>
<path d="M1110.86 501.362H1030.91L1027.92 456.759C1027.72 453.791 1030.15 451.28 1033.22 451.28H1108.55C1111.61 451.28 1114.05 453.791 1113.85 456.759L1110.86 501.362Z" fill="#B4C2F0"/>
<path d="M1110.86 503.828H1030.91L1027.92 459.225C1027.72 456.257 1030.16 453.745 1033.22 453.745H1108.55C1111.62 453.745 1114.05 456.257 1113.85 459.225L1110.86 503.828Z" fill="#95A6DB"/>
<path d="M1074.36 480.938C1074.36 483.49 1072.22 485.555 1069.59 485.555C1066.96 485.555 1064.83 483.487 1064.83 480.938C1064.83 478.389 1066.96 476.321 1069.59 476.321C1072.22 476.321 1074.36 478.386 1074.36 480.938Z" fill="#B4C2F0"/>
<path d="M1108.32 500.954C1108.46 500.766 1108.63 500.618 1108.82 500.484C1108.78 500.462 1108.75 500.441 1108.72 500.419C1106.77 499.057 1106.01 496.855 1107.02 495.504C1107.19 495.281 1107.39 495.101 1107.63 494.953C1106.76 493.737 1106.57 492.34 1107.29 491.376C1107.58 490.992 1107.98 490.723 1108.45 490.559C1107.5 489.399 1107.31 487.887 1108.11 486.807C1109.12 485.456 1111.29 485.303 1112.95 486.468C1114.61 487.631 1115.14 489.67 1114.13 491.021C1113.87 491.362 1113.54 491.628 1113.16 491.813C1114.71 493.178 1115.25 495.09 1114.34 496.312C1114.17 496.535 1113.97 496.715 1113.73 496.863C1114.6 498.08 1114.79 499.476 1114.07 500.441C1113.8 500.795 1113.44 501.056 1113.01 501.222C1113.9 502.216 1114.1 503.562 1113.39 504.513C1112.54 505.654 1110.71 505.783 1109.31 504.8C1107.91 503.817 1107.46 502.093 1108.32 500.954Z" fill="#F37A50"/>
<path d="M988.57 506.439C988.384 506.294 988.237 506.119 988.112 505.931C988.088 505.963 988.065 505.993 988.04 506.025C986.538 507.838 984.229 508.459 982.89 507.414C982.671 507.242 982.494 507.032 982.352 506.801C981.055 507.58 979.605 507.688 978.646 506.941C978.266 506.646 978.009 506.243 977.862 505.783C976.617 506.646 975.048 506.75 973.975 505.912C972.634 504.867 972.587 502.764 973.87 501.217C975.153 499.67 977.282 499.264 978.624 500.309C978.965 500.573 979.22 500.906 979.392 501.282C980.878 499.853 982.876 499.431 984.09 500.376C984.309 500.548 984.487 500.758 984.628 500.989C985.925 500.21 987.375 500.103 988.334 500.849C988.686 501.126 988.936 501.488 989.085 501.91C990.155 501.096 991.552 500.973 992.495 501.709C993.629 502.592 993.668 504.368 992.584 505.673C991.5 506.979 989.701 507.322 988.57 506.439Z" fill="#F37A50"/>
<path d="M824.502 634.621L813.896 634.567L841.794 513.196L851.936 515.264L824.502 634.621Z" fill="#617AC9"/>
<path d="M1264.64 634.621L1275.25 634.567L1247.35 513.196L1237.21 515.264L1264.64 634.621Z" fill="#617AC9"/>
<path d="M1228.36 238.106L1234.63 277.785C1234.87 279.297 1233.8 280.708 1232.24 280.939L1161.07 291.489C1159.51 291.72 1158.06 290.683 1157.82 289.171L1151.55 249.491C1151.32 247.979 1152.39 246.569 1153.94 246.338L1225.11 235.788C1226.67 235.554 1228.13 236.591 1228.36 238.106Z" fill="#F3BC3D"/>
<path d="M1228.36 238.108L1228.71 240.302L1199.85 267.675C1197.06 270.425 1192.75 271.099 1189.21 269.343L1151.75 250.748L1151.55 249.496C1151.32 247.984 1152.39 246.574 1153.95 246.34L1225.11 235.79C1226.67 235.559 1228.13 236.595 1228.36 238.108Z" fill="#F3CD75"/>
<path d="M871.171 345.315H944.703C950.505 345.315 955.206 340.76 955.206 335.138V304.733C955.206 299.114 950.505 294.556 944.703 294.556H871.171C865.369 294.556 860.668 299.111 860.668 304.733V335.138C860.668 340.76 865.369 345.315 871.171 345.315Z" fill="white"/>
<path d="M874.057 343.04V361.936C874.057 363.454 876.163 363.942 876.873 362.589L887.121 343.04H874.057Z" fill="white"/>
<path d="M872.995 310.423H941.992C944.645 310.423 946.796 308.338 946.796 305.768C946.796 303.197 944.645 301.113 941.992 301.113H872.995C870.342 301.113 868.191 303.197 868.191 305.768C868.191 308.338 870.342 310.423 872.995 310.423Z" fill="#E3EAFF"/>
<path d="M872.995 325.189H941.992C944.645 325.189 946.796 323.105 946.796 320.534C946.796 317.964 944.645 315.879 941.992 315.879H872.995C870.342 315.879 868.191 317.964 868.191 320.534C868.191 323.105 870.342 325.189 872.995 325.189Z" fill="#E3EAFF"/>
<path d="M872.291 339.957H916.568C918.832 339.957 920.667 338.179 920.667 335.984V334.617C920.667 332.423 918.832 330.645 916.568 330.645H872.291C870.026 330.645 868.191 332.423 868.191 334.617V335.984C868.191 338.179 870.026 339.957 872.291 339.957Z" fill="#E3EAFF"/>
<path d="M1040.07 372.763H960.512C954.236 372.763 949.149 367.835 949.149 361.754V319.294C949.149 313.213 954.236 308.284 960.512 308.284H1040.07C1046.35 308.284 1051.43 313.213 1051.43 319.294V361.754C1051.43 367.835 1046.35 372.763 1040.07 372.763Z" fill="#CDD8FA"/>
<path d="M1036.95 370.303V390.749C1036.95 392.39 1034.67 392.919 1033.9 391.455L1022.81 370.303H1036.95Z" fill="#CDD8FA"/>
<path d="M1307.19 321.754L1219.66 288.612C1214.09 286.506 1211.35 280.433 1213.52 275.045L1253.56 175.745C1255.74 170.357 1262.01 167.695 1267.57 169.801L1355.11 202.946C1360.67 205.052 1363.41 211.125 1361.24 216.513L1321.2 315.81C1319.02 321.198 1312.75 323.857 1307.19 321.754Z" fill="#CDD8FA"/>
<path d="M1283.67 208.684L1275.05 205.42L1245.17 279.546L1253.79 282.809L1283.67 208.684Z" fill="white"/>
<path d="M1296.55 213.561L1287.93 210.297L1258.04 284.423L1266.66 287.686L1296.55 213.561Z" fill="white"/>
<path d="M1309.43 218.479L1300.81 215.215L1270.91 289.34L1279.53 292.605L1309.43 218.479Z" fill="white"/>
<path d="M1322.3 223.314L1313.68 220.05L1283.79 294.176L1292.41 297.44L1322.3 223.314Z" fill="white"/>
<path d="M1335.17 228.182L1326.55 224.918L1296.66 299.044L1305.29 302.308L1335.17 228.182Z" fill="white"/>
<path d="M1286.34 202.078L1277.72 198.815L1276.14 202.73L1284.76 205.993L1286.34 202.078Z" fill="white"/>
<path d="M1270.94 203.863L1262.32 200.599L1260.74 204.514L1269.36 207.778L1270.94 203.863Z" fill="white"/>
<path d="M1265.96 216.218L1257.34 212.955L1255.76 216.87L1264.38 220.134L1265.96 216.218Z" fill="white"/>
<path d="M1260.98 228.574L1252.36 225.31L1250.78 229.225L1259.4 232.489L1260.98 228.574Z" fill="white"/>
<path d="M1255.99 240.927L1247.37 237.663L1245.8 241.579L1254.42 244.842L1255.99 240.927Z" fill="white"/>
<path d="M1255.99 240.927L1247.37 237.663L1245.8 241.579L1254.42 244.842L1255.99 240.927Z" fill="white"/>
<path d="M1251.01 253.288L1242.39 250.024L1240.81 253.939L1249.43 257.203L1251.01 253.288Z" fill="white"/>
<path d="M1246.03 265.643L1237.41 262.38L1235.83 266.295L1244.45 269.558L1246.03 265.643Z" fill="white"/>
<path d="M1299.22 206.945L1290.6 203.682L1289.02 207.597L1297.64 210.861L1299.22 206.945Z" fill="white"/>
<path d="M1312.09 211.867L1303.47 208.602L1301.89 212.517L1310.51 215.782L1312.09 211.867Z" fill="white"/>
<path d="M1324.97 216.737L1316.35 213.472L1314.77 217.387L1323.39 220.652L1324.97 216.737Z" fill="white"/>
<path d="M1337.84 221.567L1329.22 218.304L1327.64 222.219L1336.26 225.483L1337.84 221.567Z" fill="white"/>
<path d="M1340.9 214.517L1273.82 189.119C1271.21 188.133 1269.93 185.286 1270.94 182.764C1271.96 180.239 1274.9 178.993 1277.5 179.978L1344.58 205.377C1347.19 206.363 1348.47 209.21 1347.46 211.735C1346.44 214.257 1343.5 215.503 1340.9 214.517Z" fill="white"/>
<path d="M1016.37 356.655C1016.37 357.512 1016.21 358.342 1015.93 359.129C1014.51 363.083 1009.77 365.989 1004.13 365.989C998.493 365.989 993.748 363.086 992.328 359.129C992.043 358.342 991.893 357.512 991.893 356.655H1016.37Z" fill="#95A6DB"/>
<path d="M1016.37 356.655C1016.37 357.512 1016.21 358.342 1015.93 359.129H992.328C992.043 358.342 991.893 357.512 991.893 356.655H1016.37Z" fill="#7F95DB"/>
<path d="M1029.76 316.654C1029.76 302.953 1018.3 291.841 1004.16 291.822C990.222 291.803 978.754 302.689 978.504 316.197C978.396 322.106 980.417 327.551 983.874 331.864C988.248 337.322 990.673 344.008 990.673 350.916V351.037H1017.58V350.916C1017.58 343.997 1020.03 337.312 1024.4 331.84C1027.76 327.645 1029.76 322.375 1029.76 316.654Z" fill="#F3BC3D"/>
<path d="M1008.01 348.23C1007.93 348.23 1007.86 348.219 1007.79 348.195C1007.45 348.079 1007.27 347.716 1007.39 347.386C1007.42 347.303 1010.44 338.866 1012.64 330.274C1016.53 315.047 1014.53 312.571 1013.48 312.213C1010.42 311.163 1007.98 312.716 1006.48 314.206C1006.03 314.644 1005.61 315.138 1005.21 315.676C1005.86 316.772 1006.45 317.983 1006.95 319.264C1008.31 322.777 1008.67 326.06 1007.91 328.042C1007.33 329.573 1006.1 330.346 1004.44 330.225C1002.87 330.11 1001.72 329.232 1001.12 327.682C1000.43 325.906 1000.52 323.293 1001.37 320.516C1001.9 318.762 1002.7 317.075 1003.67 315.619C1002.76 314.233 1001.72 313.041 1000.58 312.24C998.895 311.048 997.31 310.997 995.874 312.085C992.905 314.333 992.791 321.093 995.547 331.636C997.67 339.763 1000.78 347.279 1000.81 347.354C1000.95 347.679 1000.79 348.05 1000.45 348.178C1000.11 348.31 999.732 348.152 999.597 347.827C999.566 347.751 996.423 340.166 994.277 331.958C991.342 320.725 991.608 313.701 995.064 311.083C996.963 309.643 999.197 309.689 1001.35 311.212C1002.43 311.974 1003.5 313.119 1004.46 314.515C1004.81 314.083 1005.17 313.68 1005.54 313.315C1008.05 310.836 1011.02 310.019 1013.92 311.013C1015.73 311.631 1016.47 313.983 1016.18 318.206C1015.98 321.319 1015.21 325.482 1013.91 330.58C1011.69 339.226 1008.66 347.711 1008.62 347.797C1008.53 348.066 1008.28 348.23 1008.01 348.23ZM1004.41 316.866C1003.67 318.085 1003.05 319.455 1002.62 320.876C1001.86 323.357 1001.76 325.735 1002.35 327.236C1002.77 328.318 1003.48 328.883 1004.53 328.96C1005.62 329.038 1006.3 328.609 1006.68 327.604C1007.55 325.316 1006.5 320.645 1004.41 316.866Z" fill="white"/>
<path d="M1015.31 357.467H992.944C990.277 357.467 988.115 355.372 988.115 352.788V352.592C988.115 350.008 990.277 347.913 992.944 347.913H1015.31C1017.98 347.913 1020.14 350.008 1020.14 352.592V352.788C1020.14 355.372 1017.98 357.467 1015.31 357.467Z" fill="#95A6DB"/>
<path d="M1047.67 317.674H1039.29C1038.09 317.674 1037.13 316.737 1037.13 315.582C1037.13 314.427 1038.09 313.49 1039.29 313.49H1047.67C1048.86 313.49 1049.82 314.427 1049.82 315.582C1049.82 316.737 1048.86 317.674 1047.67 317.674Z" fill="#F3BC3D"/>
<path d="M968.972 317.674H960.592C959.4 317.674 958.433 316.737 958.433 315.582C958.433 314.427 959.4 313.49 960.592 313.49H968.972C970.164 313.49 971.131 314.427 971.131 315.582C971.131 316.737 970.166 317.674 968.972 317.674Z" fill="#F3BC3D"/>
<path d="M974.297 300.495L967.627 295.577C966.679 294.878 966.494 293.565 967.217 292.643C967.941 291.725 969.293 291.545 970.244 292.246L976.911 297.161C977.859 297.86 978.044 299.173 977.321 300.094C976.6 301.016 975.247 301.196 974.297 300.495Z" fill="#F3BC3D"/>
<path d="M1033.53 300.495L1040.2 295.577C1041.15 294.878 1041.33 293.565 1040.61 292.643C1039.89 291.725 1038.53 291.545 1037.58 292.246L1030.92 297.161C1029.97 297.86 1029.78 299.173 1030.51 300.094C1031.23 301.016 1032.59 301.196 1033.53 300.495Z" fill="#F3BC3D"/>
<path d="M974.297 333.261L967.627 338.176C966.679 338.877 966.494 340.188 967.217 341.109C967.941 342.028 969.293 342.208 970.244 341.507L976.911 336.591C977.859 335.89 978.044 334.58 977.321 333.658C976.6 332.74 975.247 332.562 974.297 333.261Z" fill="#F3BC3D"/>
<path d="M1033.53 333.261L1040.2 338.176C1041.15 338.877 1041.33 340.188 1040.61 341.109C1039.89 342.028 1038.53 342.208 1037.58 341.507L1030.92 336.591C1029.97 335.89 1029.78 334.58 1030.51 333.658C1031.23 332.74 1032.59 332.562 1033.53 333.261Z" fill="#F3BC3D"/>
<path d="M1069 261.905H982.99C980.819 261.905 979.059 260.2 979.059 258.096V202.645C979.059 200.542 980.819 198.836 982.99 198.836H1069C1071.17 198.836 1072.93 200.542 1072.93 202.645V258.096C1072.92 260.2 1071.17 261.905 1069 261.905Z" fill="#CDD8FA"/>
<path d="M1054.75 220.145H988.42C986.086 220.145 984.196 218.313 984.196 216.051V214.722C984.196 212.46 986.086 210.628 988.42 210.628H1054.75C1057.08 210.628 1058.97 212.46 1058.97 214.722V216.051C1058.97 218.313 1057.08 220.145 1054.75 220.145Z" fill="white"/>
<path d="M1027.67 232.653H985.837C984.93 232.653 984.196 231.941 984.196 231.063V229.483C984.196 228.605 984.93 227.893 985.837 227.893H1027.67C1028.58 227.893 1029.31 228.605 1029.31 229.483V231.063C1029.31 231.941 1028.58 232.653 1027.67 232.653Z" fill="white"/>
<path d="M1015 251.82H985.582C984.816 251.82 984.196 251.218 984.196 250.477V248.404C984.196 247.662 984.816 247.061 985.582 247.061H1015C1015.77 247.061 1016.39 247.662 1016.39 248.404V250.477C1016.39 251.218 1015.77 251.82 1015 251.82Z" fill="white"/>
<path d="M1037 241.632H986C985.002 241.632 984.196 240.848 984.196 239.884V238.624C984.196 237.657 985.005 236.875 986 236.875H1037C1038 236.875 1038.81 237.66 1038.81 238.624V239.884C1038.81 240.851 1038 241.632 1037 241.632Z" fill="white"/>
<path d="M1063.54 264.494L1065.78 272.123C1065.19 272.166 1064.6 272.182 1064 272.171C1042.78 272.719 1035.35 244.172 1045.71 244.516C1047.88 244.734 1049.46 246.611 1049.23 248.712C1048.4 256.579 1054.33 263.638 1062.45 264.446C1062.82 264.47 1063.18 264.489 1063.54 264.494Z" fill="#C4204A"/>
<path d="M1086.53 252.429C1086.42 253.766 1086.17 255.075 1085.79 256.34L1077.81 254.962C1080.48 247.232 1076.74 237.385 1065.47 235.913C1062.54 235.62 1059.62 236.171 1057.03 237.5C1052.38 239.756 1048.8 233.222 1053.33 230.748C1068.7 222.365 1088.82 235.413 1086.53 252.429Z" fill="#F5A3B7"/>
<path d="M1085.79 256.34C1083.22 264.878 1074.98 271.499 1065.78 272.123L1063.54 264.494C1071.1 264.613 1075.98 260.291 1077.81 254.962L1085.79 256.34Z" fill="#E62552"/>
<path d="M1071.12 250.179C1071.12 254.009 1067.91 257.116 1063.96 257.116C1060.01 257.116 1056.8 254.011 1056.8 250.179C1056.8 246.348 1060 243.241 1063.96 243.241C1067.91 243.243 1071.12 246.348 1071.12 250.179Z" fill="#C4204A"/>
</svg>
